<svg id="Layer_1" data-name="Layer 1" xmlns="http://www.w3.org/2000/svg" viewBox="0 0 1005.91 447.22"><defs><style>.cls-1,.cls-13{font-size:12px;}.cls-1{font-family:MyriadPro-Regular, Myriad Pro;}.cls-2{letter-spacing:-0.01em;}.cls-3{letter-spacing:0em;}.cls-4{letter-spacing:0.01em;}.cls-5{letter-spacing:0em;}.cls-6{letter-spacing:-0.01em;}.cls-7{letter-spacing:0em;}.cls-8{letter-spacing:0.01em;}.cls-9{fill:#231f20;}.cls-10{fill:none;stroke:#eb6952;stroke-miterlimit:10;stroke-width:28px;}.cls-11{font-size:35.24px;}.cls-11,.cls-13{font-family:Roboto-Regular, Roboto;}.cls-12{fill:#e8553b;}.cls-14{letter-spacing:-0.01em;}.cls-15{letter-spacing:0em;}.cls-16{letter-spacing:-0.01em;}.cls-17{letter-spacing:-0.01em;}</style></defs><text class="cls-1" transform="translate(918.63 444.22)"><tspan class="cls-2">t</tspan><tspan class="cls-3" x="3.9" y="0">e</tspan><tspan class="cls-4" x="9.88" y="0">x</tspan><tspan class="cls-5" x="15.59" y="0">t</tspan><tspan x="19.5" y="0">-ali</tspan><tspan class="cls-6" x="34.61" y="0">g</tspan><tspan x="41.24" y="0">n: </tspan><tspan class="cls-2" x="52.93" y="0">c</tspan><tspan x="58.24" y="0">e</tspan><tspan class="cls-7" x="64.25" y="0">n</tspan><tspan class="cls-6" x="70.86" y="0">t</tspan><tspan x="74.76" y="0">e</tspan><tspan class="cls-8" x="80.77" y="0">r</tspan><tspan x="84.8" y="0">;</tspan></text><rect class="cls-9" x="60.16" y="72.49" width="38.57" height="95.17" rx="4.17"/><path class="cls-10" d="M184.44,174.31a64.54,64.54,0,1,1-64.54-64.53A64.53,64.53,0,0,1,184.44,174.31Z" transform="translate(-41.37 -95.78)"/><circle class="cls-9" cx="80.46" cy="52.51" r="16.54"/><text class="cls-11" transform="translate(158.09 85.96) scale(0.93 1)">Ai<tspan class="cls-12" x="31.54" y="0">Quee</tspan></text><text class="cls-13" transform="translate(158.09 106.69) scale(0.93 1)">The best w<tspan class="cls-14" x="58.28" y="0">a</tspan><tspan class="cls-15" x="64.72" y="0">y </tspan><tspan class="cls-16" x="73.37" y="0">t</tspan><tspan x="77.17" y="0">o lean</tspan><tspan x="0" y="14">is </tspan><tspan class="cls-17" x="12.07" y="14">t</tspan><tspan x="15.87" y="14">o answer Questions</tspan></text></svg>